.
..............................Site Info...........................

 -   http://www.scenetime.com  *_*   


Scenetime .Always on time . friendly online private torrent community ..

     We care to share . Join us on  http://www.scenetime.com 

    Be the first to get new release at  http://www.scenetime.com

        Seed back for speed


...................................NFO:.................................................[img]http://i.imgur.com/aQ5fE.jpg[/img]

[b]21.Jump.Street.2012.R5.DVDRip.XVID.AC3-ADTRG[/b]

A pair of underachieving cops are sent back to a local high school to blend in and bring down a synthetic drug ring. 

[url]http://www.imdb.com/title/tt1232829/[/url]

Source -  video - DVD9       Thanks
Source -  Audio - Hive-CM8   Thanks, Much respect to you and the gang ;)


Complete name                            : 21.Jump.Street.2012.R5.DVDRip.XVID.AC3-ADTRG.avi
Format                                   : AVI
Format/Info                              : Audio Video Interleave
File size                                : 1.66 GiB
Duration                                 : 1h 45mn
Overall bit rate                         : 2 257 Kbps
Writing library                          : VirtualDub build 34703/release

Video
ID                                       : 0
Format                                   : MPEG-4 Visual
Codec ID                                 : XVID
Bit rate                                 : 1 799 Kbps
Width                                    : 720 pixels
Height                                   : 288 pixels
Display aspect ratio                     : 2.500
Frame rate                               : 25.000 fps
Stream size                              : 1.33 GiB (80%)

Audio
ID                                       : 1
Format                                   : AC-3
Bit rate                                 : 448 Kbps
Channel(s)                               : 6 channels
Channel positions                        : Front: L C R, Side: L R, LFE
Sampling rate                            : 48.0 KHz
Stream size                              : 338 MiB (20%)



Encoder - NoWoRRieS
Shut up - skin-up....  You know the score ;) 

[img]http://i.imgur.com/PgCE8.jpg[/img]



[IMG]http://i.imgur.com/2739o.gif?1?8830[/IMG]

Dont fear the Atomic Dragon, Embrace it  :)


Greetz to DragonMaster,cOOkies,Mr Geek,DBratt420,AnimeKing,Cush,NoWoRRiEs Rayne, Mr & Mrs IrNbRu and the rest of the crew

Respect to CM8,Goon,Hope,mSD,InfernO,legend-rg and maybe a few more ;)